<svg version="1.1" id="Layer_1" xmlns="http://www.w3.org/2000/svg" xmlns:xlink="http://www.w3.org/1999/xlink" x="0px" y="0px"
	 width="100%" viewBox="0 0 437 442" enable-background="new 0 0 437 442" xml:space="preserve">
<path fill="#115173" opacity="1.000000" stroke="none" 
	d="
M87.000008,443.000000 
	C59.312439,443.000000 31.624876,443.000000 3.107284,442.781860 
	C3.658831,441.167145 4.923498,439.626129 6.441058,438.397491 
	C15.979445,430.674713 25.396120,422.781311 35.248913,415.478455 
	C38.592518,413.000122 39.222313,410.474030 39.220203,406.752014 
	C39.144688,273.631561 39.157734,140.511063 39.148457,7.390563 
	C39.148331,5.563246 39.021011,3.735939 38.965126,1.681488 
	C38.977192,1.454348 39.000000,1.000000 39.000000,1.000000 
	C80.687561,1.000000 122.375122,1.000000 164.537735,1.391546 
	C165.204330,2.578599 165.331543,3.396253 165.596710,4.166418 
	C176.377884,35.479538 187.237778,66.765724 197.943344,98.104637 
	C207.164413,125.097870 216.211349,152.150574 225.411072,179.526276 
	C230.067581,193.728668 234.648315,207.581772 239.542313,222.382172 
	C240.518738,220.037476 241.234634,218.598846 241.729980,217.087921 
	C253.886139,180.006744 266.022064,142.918930 278.154877,105.830109 
	C289.459381,71.273376 300.756195,36.714108 312.163025,1.861075 
	C312.179779,1.377467 312.089874,1.188733 312.000000,1.000000 
	C353.965759,1.000000 395.931549,1.000000 438.000000,1.000000 
	C438.000000,137.687546 438.000000,274.375122 437.649353,411.557190 
	C426.780212,420.282471 416.213287,428.452606 405.782501,436.793030 
	C403.597595,438.540070 401.914368,440.914612 400.000000,443.000000 
	C372.312439,443.000000 344.624878,443.000000 316.519867,442.685974 
	C315.994781,442.189148 315.887115,442.006378 315.953796,441.529022 
	C326.957458,432.481171 337.658020,423.559967 348.705414,415.091187 
	C351.515350,412.937195 352.146973,410.838135 352.144806,407.646362 
	C352.079529,311.047485 352.091400,214.448593 352.091187,117.849693 
	C352.091156,116.246803 352.091156,114.643906 352.091156,113.041016 
	C350.800751,114.179611 350.329895,115.499138 349.879242,116.825508 
	C340.209198,145.287140 330.498535,173.735092 320.901978,202.221481 
	C318.364471,209.753754 316.180084,217.404968 313.563446,225.238068 
	C309.797821,235.776199 306.313110,246.081528 302.804657,256.378754 
	C295.249817,278.551849 287.717651,300.732788 280.064178,322.871796 
	C279.338715,324.970276 278.247620,327.318390 276.600708,328.659637 
	C267.664246,335.937408 258.563568,343.019531 249.373505,349.976227 
	C246.727798,351.978973 243.617523,354.740112 240.687302,354.780762 
	C213.911499,355.152496 187.128403,355.010284 160.347565,354.950012 
	C159.579865,354.948303 158.813843,354.192841 158.390549,353.827576 
	C169.693680,344.965729 180.526123,335.900970 191.684494,327.256958 
	C195.400375,324.378387 196.255981,322.020538 194.658401,317.371429 
	C176.243332,263.781616 158.113815,210.093750 139.890488,156.438019 
	C134.892288,141.721588 129.834396,127.025429 124.803894,112.319969 
	C124.111031,113.025581 124.037659,113.612305 124.037590,114.199043 
	C124.032326,159.689499 124.026443,205.179947 124.061722,250.670380 
	C124.062851,252.130783 124.490280,253.590881 124.470810,255.378876 
	C124.154648,256.199463 124.027252,256.692261 124.027122,257.185120 
	C124.013832,307.577271 123.937889,357.969727 124.160393,408.360901 
	C124.176056,411.909088 122.345772,413.422974 120.330643,415.034424 
	C111.578117,422.033600 102.605072,428.757568 93.874359,435.783112 
	C91.308563,437.847809 89.276627,440.575958 87.000008,443.000000 
z"/>
<path fill="#000000" opacity="1.000000" stroke="none" 
	d="
M87.468666,443.000000 
	C89.276627,440.575958 91.308563,437.847809 93.874359,435.783112 
	C102.605072,428.757568 111.578117,422.033600 120.330643,415.034424 
	C122.345772,413.422974 124.176056,411.909088 124.160393,408.360901 
	C123.937889,357.969727 124.013832,307.577271 124.027122,257.185120 
	C124.027252,256.692261 124.154648,256.199463 124.600769,255.747406 
	C136.001633,288.455017 147.024338,321.121918 158.047043,353.788818 
	C158.813843,354.192841 159.579865,354.948303 160.347565,354.950012 
	C187.128403,355.010284 213.911499,355.152496 240.687302,354.780762 
	C243.617523,354.740112 246.727798,351.978973 249.373505,349.976227 
	C258.563568,343.019531 267.664246,335.937408 276.600708,328.659637 
	C278.247620,327.318390 279.338715,324.970276 280.064178,322.871796 
	C287.717651,300.732788 295.249817,278.551849 302.804657,256.378754 
	C306.313110,246.081528 309.797821,235.776199 313.637970,225.701950 
	C313.988190,296.045807 313.993622,366.162262 314.000244,436.278717 
	C314.000397,437.777435 313.885162,439.295105 314.101532,440.763000 
	C314.164429,441.189697 315.193390,441.474030 315.779480,441.823639 
	C315.887115,442.006378 315.994781,442.189148 316.051208,442.685974 
	C239.979111,443.000000 163.958206,443.000000 87.468666,443.000000 
z"/>
<path fill="#FFFF00" opacity="1.000000" stroke="none" 
	d="
M38.953060,1.908628 
	C39.021011,3.735939 39.148331,5.563246 39.148457,7.390563 
	C39.157734,140.511063 39.144688,273.631561 39.220203,406.752014 
	C39.222313,410.474030 38.592518,413.000122 35.248913,415.478455 
	C25.396120,422.781311 15.979445,430.674713 6.441058,438.397491 
	C4.923498,439.626129 3.658831,441.167145 2.638628,442.781860 
	C2.333336,442.667725 1.216223,442.454224 1.090964,441.979187 
	C0.803633,440.889526 1.000000,439.672302 1.000000,438.506866 
	C1.000000,302.983673 1.000000,167.460495 1.358605,31.465919 
	C5.936548,27.705067 10.158838,24.419390 14.374593,21.125349 
	C22.569353,14.722256 30.760447,8.314470 38.953060,1.908628 
z"/>
<path fill="#000000" opacity="1.000000" stroke="none" 
	d="
M225.335281,179.176987 
	C216.211349,152.150574 207.164413,125.097870 197.943344,98.104637 
	C187.237778,66.765724 176.377884,35.479538 165.596710,4.166418 
	C165.331543,3.396253 165.204330,2.578599 165.006393,1.391546 
	C213.687561,1.000000 262.375122,1.000000 311.531342,1.000000 
	C312.089874,1.188733 312.179779,1.377467 311.809662,1.866330 
	C310.644073,2.545743 309.859497,2.826447 309.244812,3.319159 
	C300.586426,10.259809 292.135559,17.476189 283.251343,24.112961 
	C276.252716,29.341141 271.586914,35.526562 269.763031,44.306007 
	C268.331848,51.195217 265.383209,57.765400 263.161865,64.494850 
	C250.544159,102.719322 237.942429,140.949051 225.335281,179.176987 
z"/>
<path fill="#000000" opacity="1.000000" stroke="none" 
	d="
M400.468628,443.000000 
	C401.914368,440.914612 403.597595,438.540070 405.782501,436.793030 
	C416.213287,428.452606 426.780212,420.282471 437.649353,412.025879 
	C438.000000,422.267365 438.000000,432.534729 438.000000,443.000000 
	C425.646484,443.000000 413.291901,443.000000 400.468628,443.000000 
z"/>
<path fill="#000000" opacity="1.000000" stroke="none" 
	d="
M38.965126,1.681488 
	C30.760447,8.314470 22.569353,14.722256 14.374593,21.125349 
	C10.158838,24.419390 5.936548,27.705067 1.358605,30.997261 
	C1.000000,21.064785 1.000000,11.129571 1.000000,1.000000 
	C13.353549,1.000000 25.708117,1.000000 38.531342,1.000000 
	C39.000000,1.000000 38.977192,1.454348 38.965126,1.681488 
z"/>
<path fill="#FFFF00" opacity="1.000000" stroke="none" 
	d="
M315.953796,441.529022 
	C315.193390,441.474030 314.164429,441.189697 314.101532,440.763000 
	C313.885162,439.295105 314.000397,437.777435 314.000244,436.278717 
	C313.993622,366.162262 313.988190,296.045807 313.908112,225.465469 
	C316.180084,217.404968 318.364471,209.753754 320.901978,202.221481 
	C330.498535,173.735092 340.209198,145.287140 349.879242,116.825508 
	C350.329895,115.499138 350.800751,114.179611 352.091156,113.041016 
	C352.091156,114.643906 352.091156,116.246803 352.091187,117.849693 
	C352.091400,214.448593 352.079529,311.047485 352.144806,407.646362 
	C352.146973,410.838135 351.515350,412.937195 348.705414,415.091187 
	C337.658020,423.559967 326.957458,432.481171 315.953796,441.529022 
z"/>
<path fill="#FEFE01" opacity="1.000000" stroke="none" 
	d="
M158.390564,353.827576 
	C147.024338,321.121918 136.001633,288.455017 124.848953,255.419632 
	C124.490280,253.590881 124.062851,252.130783 124.061722,250.670380 
	C124.026443,205.179947 124.032326,159.689499 124.037590,114.199043 
	C124.037659,113.612305 124.111031,113.025581 124.803894,112.319969 
	C129.834396,127.025429 134.892288,141.721588 139.890488,156.438019 
	C158.113815,210.093750 176.243332,263.781616 194.658401,317.371429 
	C196.255981,322.020538 195.400375,324.378387 191.684494,327.256958 
	C180.526123,335.900970 169.693680,344.965729 158.390564,353.827576 
z"/>
<path fill="#FEFE01" opacity="1.000000" stroke="none" 
	d="
M225.411072,179.526276 
	C237.942429,140.949051 250.544159,102.719322 263.161865,64.494850 
	C265.383209,57.765400 268.331848,51.195217 269.763031,44.306007 
	C271.586914,35.526562 276.252716,29.341141 283.251343,24.112961 
	C292.135559,17.476189 300.586426,10.259809 309.244812,3.319159 
	C309.859497,2.826447 310.644073,2.545743 311.703003,2.161204 
	C300.756195,36.714108 289.459381,71.273376 278.154877,105.830109 
	C266.022064,142.918930 253.886139,180.006744 241.729980,217.087921 
	C241.234634,218.598846 240.518738,220.037476 239.542313,222.382172 
	C234.648315,207.581772 230.067581,193.728668 225.411072,179.526276 
z"/>
</svg>